<svg width="94" height="51" viewBox="0 0 94 51" fill="none" xmlns="http://www.w3.org/2000/svg">
<rect x="21.9102" y="1.5" width="48.8082" height="48.8082" rx="11.5" fill="#F162C1" stroke="black" stroke-width="3"/>
<line x1="68.4715" y1="46.6345" x2="90.6287" y2="46.6345" stroke="black" stroke-width="3"/>
<line x1="23.3931" y1="46.5784" x2="2" y2="46.5784" stroke="black" stroke-width="3"/>
<line x1="92.1848" y1="48.1345" x2="92.1848" y2="40.4941" stroke="black" stroke-width="3"/>
<line x1="2.02808" y1="48.1345" x2="2.02808" y2="40.4941" stroke="black" stroke-width="3"/>
<path d="M31.7616 26.1396C31.5261 24.9622 32.0442 22.6072 36.0005 22.6072C39.9567 22.6072 40.3178 24.9622 40.0038 26.1396" stroke="black" stroke-width="3"/>
<path d="M53.4268 26.1396C53.1914 24.9622 53.7094 22.6072 57.6657 22.6072C61.622 22.6072 61.9831 24.9622 61.6691 26.1396" stroke="black" stroke-width="3"/>
<path d="M51.3469 32.0269C51.5824 33.2043 51.0643 35.5593 47.1081 35.5593C43.1518 35.5593 42.7907 33.2043 43.1047 32.0269" stroke="black" stroke-width="3"/>
</svg>
