<svg width="150" height="97" viewBox="0 0 150 97" fill="none" xmlns="http://www.w3.org/2000/svg">
<path d="M78.4529 12.0908L121.812 86.9557C123.743 90.289 121.337 94.4616 117.485 94.4616L30.767 94.4616C26.915 94.4616 24.5097 90.289 26.4403 86.9557L69.7995 12.0908C71.7255 8.76534 76.5269 8.76534 78.4529 12.0908Z" fill="#32F5D2" stroke="black" stroke-width="4"/>
<line x1="36.7691" y1="65.7256" x2="11.9427" y2="56.8841" stroke="black" stroke-width="4"/>
<line x1="111.888" y1="69.9874" x2="133.795" y2="55.3375" stroke="black" stroke-width="4"/>
<line x1="13.9684" y1="56.4713" x2="1.35469" y2="68.086" stroke="black" stroke-width="4"/>
<line x1="132.928" y1="55.7207" x2="148.881" y2="59.4632" stroke="black" stroke-width="4"/>
<line x1="60.36" y1="50.0125" x2="69.9432" y2="55.6027" stroke="black" stroke-width="4"/>
<line x1="77.1043" y1="56.7146" x2="85.8889" y2="47.93" stroke="black" stroke-width="4"/>
<circle cx="62.9459" cy="60.1253" r="2.7951" fill="black"/>
<circle cx="84.5081" cy="59.3267" r="2.7951" fill="black"/>
<path d="M68.1368 76.4966L74.4258 69.3092L80.1158 76.4966" stroke="black" stroke-width="4"/>
</svg>
