<svg width="136" height="94" viewBox="0 0 136 94" fill="none" xmlns="http://www.w3.org/2000/svg">
<path d="M12.6962 75.878L17.8837 79.0155C18.8337 79.5905 19.9962 78.7405 19.7462 77.6655L18.3712 71.7655L22.9587 67.7905C23.7962 67.0655 23.3462 65.6905 22.2462 65.603L16.2087 65.0905L13.8462 59.5155C13.4212 58.503 11.9712 58.503 11.5462 59.5155L9.1837 65.078L3.1462 65.5905C2.0462 65.678 1.5962 67.053 2.4337 67.778L7.0212 71.753L5.6462 77.653C5.3962 78.728 6.5587 79.578 7.5087 79.003L12.6962 75.878V75.878Z" fill="#F162C1" stroke="black" stroke-width="3"/>
<path d="M123.696 20.878L128.884 24.0155C129.834 24.5905 130.996 23.7405 130.746 22.6655L129.371 16.7655L133.959 12.7905C134.796 12.0655 134.346 10.6905 133.246 10.603L127.209 10.0905L124.846 4.51554C124.421 3.50304 122.971 3.50304 122.546 4.51554L120.184 10.078L114.146 10.5905C113.046 10.678 112.596 12.053 113.434 12.778L118.021 16.753L116.646 22.653C116.396 23.728 117.559 24.578 118.509 24.003L123.696 20.878V20.878Z" fill="#F162C1" stroke="black" stroke-width="3"/>
<path d="M72.6962 77.3362L95.5212 91.1412C99.7012 93.6712 104.816 89.9312 103.716 85.2012L97.6662 59.2412L117.851 41.7512C121.536 38.5612 119.556 32.5112 114.716 32.1262L88.1512 29.8712L77.7562 5.34125C75.8862 0.88625 69.5062 0.88625 67.6362 5.34125L57.2412 29.8162L30.6762 32.0712C25.8362 32.4562 23.8562 38.5062 27.5412 41.6962L47.7262 59.1862L41.6762 85.1462C40.5762 89.8762 45.6912 93.6162 49.8712 91.0862L72.6962 77.3362V77.3362Z" fill="#32F5D2" stroke="black" stroke-width="4"/>
<path d="M51.7677 47.2699C51.415 45.5061 52.191 41.9786 58.1173 41.9786C64.0436 41.9786 64.5845 45.5061 64.1142 47.2699" stroke="black" stroke-width="4"/>
<path d="M79.1734 53.9786C79.5261 55.7423 78.7501 59.2699 72.8238 59.2699C66.8975 59.2699 66.3566 55.7423 66.8269 53.9786" stroke="black" stroke-width="4"/>
<path d="M79.7677 47.2699C79.415 45.5061 80.191 41.9786 86.1173 41.9786C92.0436 41.9786 92.5845 45.5061 92.1142 47.2699" stroke="black" stroke-width="4"/>
</svg>
